/* XPM */
static char *result[] = {
/* columns rows colors chars-per-pixel */
"31 50 42 1 ",
"  c black",
". c #202020",
"X c #282828",
"o c gray22",
"O c #584020",
"+ c #000040",
"@ c #484848",
"# c #505050",
"$ c #606060",
"% c #63747D",
"& c gray44",
"* c gray47",
"= c #800000",
"- c #B00000",
"; c #A85000",
": c #B05000",
"> c #805028",
", c #885830",
"< c #986038",
"1 c #A06038",
"2 c #A86840",
"3 c #B07040",
"4 c #B87848",
"5 c #C87848",
"6 c #D88850",
"7 c #F09058",
"8 c #F89860",
"9 c #F8A070",
"0 c #F8F850",
"q c #7D929E",
"w c #888888",
"e c #989898",
"r c gray66",
"t c gray69",
"y c #F8B080",
"u c #F8B890",
"i c #F8D0B8",
"p c #C0C0C0",
"a c #D0D0D0",
"s c #D8D8D8",
"d c gray91",
"f c #F8F8F8",
/* pixels */
"%%%%%%%%%%%%%%%%%%%%%%%%%%%%%%%",
"%%%%%%%%%%%%%%%%%%%%%%%%%%%%%%%",
"%%%%%%%%%%%%%%%%%%%%%%%%%%%%%%%",
"%%%%%%%%%%%%%%%%%%%%%%%%%%%%%%%",
"%%%%%%%%%%%%%%%%%%%%%%%%%%%%%%%",
"%%%%%%%%%%%@ooX-+%%%%%%%%%%%%%%",
"%%%%%%%%%%o.    -=%%%%%%%%%%%%%",
"%%%%%%%%%X       -+%%%%%%%%%%%%",
"%%%%%%%%%    OOO oO+%%%%%%%%%%%",
"%%%%%%%%%  O422642O+%%%%%%%%%%%",
"%%%%%%%%%  4u9iy722+%%%%%%%%%%%",
"%%%%%%%%%  911,,222+%%%%%%%%%%%",
"%%%%%%%%%% 116,,   *%%%%%%%%%%%",
"%%%%%%%%%%%><<< eesddppddd%%%%%",
"%%%%%%%%%%%<eeefeessdpddddde%%%",
"%%%%%%%%%%   ****prr*eteeedde%%",
"%%%%%%%%aaa&  &&ooo$#eeeeeedde%",
"%%%%%%%aaaa&&   #o ##$%%%%e888%",
"%%%%%arreaaaa :  efffe%%%%%8>83",
"%%%%ra*$eaaw :0efsssffar%%%%%83",
"%%%raee$$aa #;efsssssr**%%%%%53",
"%%rae*&&&%a@@ssftssseta#%%%%%%>",
"%r33*&%%%%@$sssftrs**w*&#%%%%%%",
"%663&%%%%%$tswrf*sw****&#%%%%%%",
"66%3%%%%%&tssfrp**&***&# %%%%%%",
"%6%%%%%%%&tsstt&$*&**@   %%%%%%",
"%%%%%%%%%$tsptt&$        %%%%%%",
"%%%%%%%%%$tsptt&$@++     %%%%%%",
"%%%%%%%%%$tsptt&@@++++  %%%%%%%",
"%%%%%%%%%$tsttr$@@%      %%%%%%",
"%%%%%%%%%$tsttr$@@%    + %%%%%%",
"%%%%%%%%%$tstss@oX%  ++++%%%%%%",
"%%%%%%%%%$tte***@@% ++++ %%%%%%",
"%%%%%%%%%@****$#@@ %++  %%%%%%%",
"%%%%%%%%%@*$$$$#@@ %%%%%%%%%%%%",
"%%%%%%%%%%@@###@@X %%%%%%%%%%%%",
"%%%%%%%%%%%X@@@@X  %%%%%%%%%%%%",
"%%%%%%%%%%%%+       %%%%%%%%%%%",
"%%%%%%%%%%%%%  +     %%%%%%%%%%",
"%%%%%%%%%%%%%%%      %%%%%%%%%%",
"%%%%%%%%%%%%%%% +    %%%%%%%%%%",
"%%%%%%%%%%%%%%% +    %%%%%%%%%%",
"%%%%%%%%%%%%%%%%+    %%%%%%%%%%",
"%%%%%%%%%%%%%%%%++   %%%%%%%%%%",
"%%%%%%%%%%%%%%%%%++ %%%%%%%%%%%",
"%%%%%%%%%%%%%%%%%%%%%%%%%%%%%%%",
"%%%%%%%%%%%%%%%%%%%%%%%%%%%%%%%",
"%%%%%%%%%%%%%%%%%%%%%%%%%%%%%%%",
"%%%%%%%%%%%%%%%%%%%%%%%%%%%%%%%",
"qqqqqqqqqqqqqqqqqqqqqqqqqqqqqqq"
};
