/* XPM */
static char *result[] = {
/* columns rows colors chars-per-pixel */
"31 50 34 1 ",
"  c black",
". c #282828",
"X c gray22",
"o c #584020",
"O c #704828",
"+ c #000040",
"@ c #484848",
"# c #505050",
"$ c #606060",
"% c #63747D",
"& c gray44",
"* c gray47",
"= c #805028",
"- c #885830",
"; c #A06038",
": c #A86840",
"> c #B07040",
", c #B87848",
"< c #C87848",
"1 c #D88850",
"2 c #E88858",
"3 c #F89860",
"4 c #F8A070",
"5 c #7D929E",
"6 c #888888",
"7 c #989898",
"8 c gray66",
"9 c gray69",
"0 c #F8B890",
"q c #C0C0C0",
"w c #D0D0D0",
"e c #D8D8D8",
"r c gray91",
"t c #F8F8F8",
/* pixels */
"%%%%%%%%%%%%%%%%%%%%%%%%%%%%%%%",
"%%%%%%%%%%%%%%%%%%%%%%%%%%%%%%%",
"%%%%%%%%%%%%%%%%%%%%%%%%%%%%%%%",
"%%%%%%%%%%%%%%%%%%%%%%%%%%%%%%%",
"%%%%%%%%%%%%%%%%%%%%%%%%%%%%%%%",
"%%%%%%%%%%%%%%%%%%%%%%%%%%%%%%%",
"%%%%%%%%%%%%%%%%%%%%%%%%%%%%%%%",
"%%%%%%%%%%%%%%%%%%%%%%%%%%%%%%%",
"%%%%%%%%%%%%%%%%%%%%%%%%%%%%%%%",
"%%%%%%%%%%%%%%%%%%%%%%%%%%%%%%%",
"%%%%%%%%%%%%%%%%%%%%%%%%%%%%%%%",
"%%%%%%%%%%%%%%%%%%%%%%%%%%%%%%%",
"%%%%%%%%%%%%%%%%%%%%%%%%%%%%%%%",
"%%%%%%%%%%%%%%%%%%%%%%%%%%%%%%%",
"%%%%%%%%%%%%%%%%%%%%%%%%%%%%%%%",
"%%%%%%%%%%%%%     %%%%%%%%%%%%%",
"%%%%%%%%%%%%       %%%%%%%%%%%%",
"%%%%%%%%%%%      + +%%%%%%%%%%%",
"%%%%%%%%%%%  -,,-=X=+%%%%%%%%%%",
"%%%%%%%%%%X o,111,<=+%%%%%%%%%%",
"%%%%%%%%%%  ,022,<<=+%%%%%%%%%%",
"%%%%%%%%%%  42;;;;:=+%%%%%%%%%%",
"%%%%%%%%%%% ,----eettt%%%%%%%%%",
"%%%%%%%%tttwOOOOerrr99t%%%%%%%%",
"%%%%ttqttteee# t9rrreeqt7r%%%%%",
"%%ttte78wwwe# #t9rreq6$$87rr%%%",
"1>>998&77ww# *wt9ree@+++ 99rr%%",
"11>&&&&&&ww ttet69e6+++  %7333%",
"%>%%%%%%%&tttte8e9q++++   %3%3>",
"%%%%%%%%%ttttew88*8+++    %%%3>",
"%%%%%%%tttttte96*$$ + +     %=>",
"%%%%%%qqtttttt**$#@@    ++++ %=",
"%%%%%%ttrttt*e8$#%%%%+ +++++ %%",
"%%%%%7tteww86*$#%%%%%%+++++ %%%",
"%%%% @tew778$X#%%%%%%%++++ %%%%",
"%%%% .@777**@@%%%%%%%% +  %%%%%",
"%%%%+ ..@@@@%%%%%%%%%%%%%%%%%%%",
"%%%% +     %%%%%%%%%%%%%%%%%%%%",
"%%%%  +   %%%%%%%%%%%%%%%%%%%%%",
"%%%%+     %%%%%%%%%%%%%%%%%%%%%",
"%%%++    %%%%%%%%%%%%%%%%%%%%%%",
"%%%+++   %%%%%%%%%%%%%%%%%%%%%%",
"%%%+++   %%%%%%%%%%%%%%%%%%%%%%",
"%%%+++  %%%%%%%%%%%%%%%%%%%%%%%",
"%%%     %%%%%%%%%%%%%%%%%%%%%%%",
"%%%%   %%%%%%%%%%%%%%%%%%%%%%%%",
"%%%%%%%%%%%%%%%%%%%%%%%%%%%%%%%",
"%%%%%%%%%%%%%%%%%%%%%%%%%%%%%%%",
"%%%%%%%%%%%%%%%%%%%%%%%%%%%%%%%",
"5555555555555555555555555555555"
};
