/* XPM */
static char *result[] = {
/* columns rows colors chars-per-pixel */
"31 50 51 1 ",
"  c black",
". c #202020",
"X c #282828",
"o c gray22",
"O c #503818",
"+ c #584020",
"@ c #684820",
"# c #000040",
"$ c #000058",
"% c #484848",
"& c #505050",
"* c #606060",
"= c #63747D",
"- c gray44",
"; c gray47",
": c #A00000",
"> c #E00000",
", c #F80000",
"< c #984800",
"1 c #A85000",
"2 c #805028",
"3 c #885830",
"4 c #905830",
"5 c #986038",
"6 c #F87800",
"7 c #B07040",
"8 c #B87848",
"9 c #F05050",
"0 c #C87848",
"q c #A8A800",
"w c #D08050",
"e c #D88850",
"r c #E88858",
"t c #F8A858",
"y c #F89860",
"u c #F8A070",
"i c #F8F850",
"p c #0000A8",
"a c #7D929E",
"s c #888888",
"d c #989898",
"f c gray66",
"g c gray69",
"h c #F8B080",
"j c #F8B890",
"k c #C0C0C0",
"l c #D0D0D0",
"z c #D8D8D8",
"x c #F8D8C0",
"c c gray91",
"v c #F8F8F8",
/* pixels */
"===============================",
"=============9,>>>:============",
"===========>:oX     ===========",
"==========: p        ==========",
"==========op<yquuu3   =========",
"==========o+qhru88h0+ ====k====",
"==========o4qehhjjhh4 =========",
"===========o4ehhuxx0k==k=z=====",
"============erhhhhr0==k========",
"=========== he7777r2===========",
"==========..o7hr778O===========",
"========;;%.ck    Oc===========",
"======vvvv;.o   c    ==========",
"====vvvvvvgs...ckcllld*========",
"===vvvvzzvccc...cdlvvgd;=======",
"==jeesvzgddccc...dkldvsd;======",
"=je5+esdg;fcccc...kkld;dd======",
"j53++&**;dflcccs...fks*-ss=====",
"=f+++&=;sddfllds*..%ds*-**=====",
"==s-&==g;sddgfdd;%..%d&*-;;====",
"========gsssdsdd;s...&&&*-;;===",
"========ggs&....itt..o=*&*ww;==",
"========-* .....61@.. ==*w%7w==",
"========= &;gggdgffs& ===%%7w7=",
"=========-gzzzzzgzzzs-o===%%77=",
"=========-zccczkgfzzzs*========",
"========*zcccczz**ggdz-*=======",
"========zfgggff***ffs;-*=======",
"========fkvvvvff%-**&X .=======",
"========kvvvvvgd&-;dd;*-&======",
"========kvvvvzgd-;sfffs--======",
"=======kvvvvvlgd-sffffs--======",
"=======kvvvvvlgd-sflffs--&=====",
"=======kvvvvzlgd=;fclff--&=====",
"=======vvvvvzgd===sfccf;*&=====",
"======vvvvvvzdd===lccccf-&=====",
"=====vvvvvvvc;=====ffcss-&=====",
"=====vglllgcc*====# ss--&&=====",
"======fllll--&====##  &&&&=====",
"======;glll;*===## #     ======",
"=====#;;dl;&o===##  #   =======",
"=====#$#    ====##    =========",
"=====####   ====##   ==========",
"=====###   =====##   ==========",
"=====     ======      =========",
"=====###  =======     =========",
"=====####  ====================",
"====$####  ====================",
"====#####. ====================",
"aaaaaaaaaaaaaaaaaaaaaaaaaaaaaaa"
};
