/* XPM */
static char *result[] = {
/* columns rows colors chars-per-pixel */
"31 50 52 1 ",
"  c black",
". c #202020",
"X c #282828",
"o c gray22",
"O c #700000",
"+ c #483818",
"@ c #503818",
"# c #584020",
"$ c #684820",
"% c #000040",
"& c #000048",
"* c #000058",
"= c #000060",
"- c #000078",
"; c #484848",
": c #505050",
"> c #606060",
", c #63747D",
"< c gray44",
"1 c gray47",
"2 c #A00000",
"3 c #E00000",
"4 c #F80000",
"5 c #805028",
"6 c #905830",
"7 c #986038",
"8 c #A06038",
"9 c #A86840",
"0 c #B07040",
"q c #B87848",
"w c #F05050",
"e c #D08050",
"r c #D88850",
"t c #E88858",
"y c #F09058",
"u c #F89860",
"i c #F8A070",
"p c #0000A0",
"a c #0000A8",
"s c #0000B0",
"d c #888888",
"f c #989898",
"g c gray66",
"h c gray69",
"j c #F8B080",
"k c #F8B890",
"l c #F8D0B8",
"z c #C0C0C0",
"x c #D0D0D0",
"c c #D8D8D8",
"v c gray91",
"b c #F8F8F8",
/* pixels */
",,,,,,,,,,,,,,,,,,,,,,,,,,,,,,,",
",,,,,,,,,,,,,,,,,,,,,,,,,,,,,,,",
",,,,,,,,,,,,,,,,,,,,,,,,,,,,,,,",
",,,,,,,,,,O--------&O,,,,,,,,,,",
",,,,,,,,,p34w4333222O,,,,,,,,,,",
",,,,,,,,,o ::gbbg:o.o,,,,,,,,,,",
",,,,,,,,,oaX       oo,,,,,,,,,,",
",,,,,,,,,,o<zg1::ooo,,,,,,,,,,,",
",,,,,,,,,,#$7s85s7$#,,,,,,,,,,,",
",,,,,,,,,,6qiky0kiq6,,,,,,,,,,,",
",,,,,,,,,,,qriiiirq,,,,,,,,,,,,",
",,,,,,,,,,,5ykllky5 ,,,,,,,,,,,",
",,,,,,,,,,.5tiiiit5  <:,,,,,,,,",
",,,,,,,,,,ovo6888@ 1 dd<,,,,,,,",
",,,,,,,,>;;oh.    g ddf<<,,,,,,",
",,,,,,,gc1;;. <<   zhgf<>,,,,,,",
",,,,,,gcbh1X hbhbzzzxff>>:,,,,,",
",,,,,,gbbbd:X.dd1gxxhd<::;,,,,,",
",,,,,hxbbhdd:XXd>1fddd<;o:,,,,,",
",,,,,hxbch>dd;XX><fff1:o::,,,,,",
",,,,,hxbch>>1tu0@><1<;;o::,,,,,",
",,,,,hxbbf1gjjkr7 o;;;oo;;,,,,,",
",,,,,hbbgccbjiit9. XX. $9:,,,,,",
",,,,,hbbcbbbgre95      $e$,,,,,",
",,,,,,bbchhd1;+++    .X$e,,,,,,",
",,,,,,,ff1>>;XXXooooo;;o,,,,,,,",
",,,,,,,,1>:;ooX;<1ddd<;o,,,,,,,",
",,,,,,,,1<>::;;>1fgzzh<;,,,,,,,",
",,,,,,,,11<>::o<1fgxxh<;,,,,,,,",
",,,,,,,,>11>::;<>dddd>:;,,,,,,,",
",,,,,,,,f>>;;;;>dccccd>;,,,,,,,",
",,,,,,,,fd<>::>dgccccdd>,,,,,,,",
",,,,,,,,fd<>::>dgccccdd>,,,,,,,",
",,,,,,,,fd<>::>dgccccgd>,,,,,,,",
",,,,,,,,fd<>::>dgccccg>,,,,,,,,",
",,,,,,,,<d<>:::1gzzzzh>,,,,,,,,",
",,,,,,,,d<<<::;1hhhffh>,,,,,,,,",
",,,,,,,,<;;;;;<h<dddd<h>,,,,,,,",
",,,,,,,,,.oooo1<>1111;>>,,,,,,,",
",,,,,,,,,,....o;:>>>>;;,,,,,,,,",
",,,,,,,,,,    .o:>>>:;;,,,,,,,,",
",,,,,,,,,,%%          ,,,,,,,,,",
",,,,,,,,,,%      %%   ,,,,,,,,,",
",,,,,,,,,,%%%%  *%%   ,,,,,,,,,",
",,,,,,,,,,=%   ,*%%   ,,,,,,,,,",
",,,,,,,,,,,,,,,,      ,,,,,,,,,",
",,,,,,,,,,,,,,,,%%%  ,,,,,,,,,,",
",,,,,,,,,,,,,,,%%%%%% ,,,,,,,,,",
",,,,,,,,,,,,,,,%%%%%% ,,,,,,,,,",
",,,,,,,,,,,,,,,%%%%%% ,,,,,,,,,"
};
