/* XPM */
static char *result[] = {
/* columns rows colors chars-per-pixel */
"31 50 24 1 ",
"  c black",
". c gray22",
"X c #684820",
"o c #704828",
"O c #000040",
"+ c #000048",
"@ c #505050",
"# c #606060",
"$ c #63747D",
"% c gray44",
"& c gray47",
"* c #885830",
"= c #B87848",
"- c #D08050",
"; c #F89860",
": c #7D929E",
"> c #888888",
", c #989898",
"< c gray66",
"1 c #F8C8B0",
"2 c #D0D0D0",
"3 c #D8D8D8",
"4 c gray91",
"5 c #F8F8F8",
/* pixels */
"$$$$$$$$$$$$$$$$$$$$$$$$$$$$$$$",
"$$$$$$$$$$$$$$$$$$$$$$$$$$$$$$$",
"$$$$$$$$$$$$$$$$$$$$$$$$$$$$$$$",
"$$$$$$$$$$$$$$$$$$$$$$$$$$$$$$$",
"$$$$$$$$$$$$$$$$$$$$$$$$$$$$$$$",
"$$$$$$$$$$$$$$$$$$$$$$$$$$$$$$$",
"$$$$$$$$$$$$$$$$$$$$$$$$$$$$$$$",
"$$$$$$$$$$$$$$$$$$$$$$$$$$$$$$$",
"$$$$$$$$$$$$$$$$$$$$$$$$$$$$$$$",
"$$$$$$$$$$$$$$$$$$$$$$$$$$$$$$$",
"$$$$$$$$$$$$$$$$$$$$$$$$$$$$$$$",
"$$$$$$$$$$$$$$$$$$$$$$$$$$$$$$$",
"$$$$$$$$$$$$$$$$$$$$$$$$$$$$$$$",
"$$$$$$$$$$$$$$$$$$$$$$$$$$$$$$$",
"$$$$$$$$$$$$$$$$$$$$$$$$$$$$$$$",
"$$$$$$$$$$$$$$$$$$$$$$$$$$$$$$$",
"$$$$$$$$$$$$$$$$$$$$$$$$$$$$$$$",
"$$$$$$$$$$$$$$$$$$$$$$$$$$$$$$$",
"$$$$$$$$$$$$$$$$$$$$$$$$$$$$$$$",
"$$$$$$$$$$$$$$$$$$$$$$$$$$$$$$$",
"$$$$$$$$$$$$$$$$$$$$$$$$$$$$$$$",
"$$$$$$$$$$$$$$$$$$$$$$$$$$$$$$$",
"$$$$$$$$$$$$$$$$$$$$$$$$$$$$$$$",
"$$$$$$$$$$$$$$$$$$$$$$$$$$$$$$$",
"$$$$$$$$$$$$$$$$$$$$$$$$$$$$$$$",
"$$$$$$$$$$$$$$$$$$$$$$$$$$$$$$$",
"$$$$$$$$$$$$$$$$$$$$$$$$$$$$$$$",
"$$$$$$$$$$$$$$$$$$$$$$$$$$$$$$$",
"$$$$$$$$$$$$$$$$$$$$$$$$$$$$$$$",
"$$$$$$$$$$$$$$$$$$$$$$$$$$$$$$$",
"$$$$$$$$$$$$$$$$$$$$$$$$$$$$$$$",
"$$$$$$$$$$$$$$$$$$$$$$$$$$$$$$$",
"$$$$$$$$$$$$$$$$$$$$$$$$$$$$$$$",
"$$$$$$$$$$$$$$$$$$$$$$$$$$$$$$$",
"$$$$$$$$$$$$     $$$$$$$$$$$$$$",
"$$$$$$$$$$$       $$$$$$$$$$$$$",
"$$$$$$$$$$  X***X  $$$$$$$$$$$$",
"$$$$$$$$$$ oo---oo $$$$$$$$$$$$",
"$$$$$$$$$<<<<<<<<<<<<>$$$$$$$$$",
"$$$$$%<55551,,535555543>>>$$$$$",
"$=;3,,<5555555,35555555>++O  $ ",
"===;OOO@33322<<#222&4>> +O OOOO",
"OOO  OO .,<<<<%@&,,##>>OO  OO  ",
"   OO  O .<<%@@@#&&&##>    O   ",
"     O   .%%@$$$$$$@@@>        ",
"         %$$$$$$$$$$$$$@       ",
"         $$$$$$$$$$$$$$$$$$    ",
"$$$     $$$$$$$$$$$$$$$$$$$$$$$",
"$$$$$$$$$$$$$$$$$$$$$$$$$$$$$$$",
":::::::::::::::::::::::::::::::"
};
