/* XPM */
static char *result[] = {
/* columns rows colors chars-per-pixel */
"31 50 49 1 ",
"  c black",
". c #202020",
"X c #282828",
"o c gray22",
"O c #700000",
"+ c #483818",
"@ c #584020",
"# c #684820",
"$ c #000040",
"% c #000048",
"& c #000078",
"* c #484848",
"= c #505050",
"- c #606060",
"; c #63747D",
": c gray44",
"> c gray47",
", c #A00000",
"< c #E00000",
"1 c #F80000",
"2 c #805028",
"3 c #905830",
"4 c #986038",
"5 c #A06038",
"6 c #F87800",
"7 c #A86840",
"8 c #B07040",
"9 c #B87848",
"0 c #F05050",
"q c #C87848",
"w c #D88850",
"e c #E88858",
"r c #F09058",
"t c #F8A070",
"y c #0000A0",
"u c #0000A8",
"i c #0000B0",
"p c #888888",
"a c #989898",
"s c gray66",
"d c gray69",
"f c #F8B080",
"g c #F8B890",
"h c #F8D0B8",
"j c #C0C0C0",
"k c #D0D0D0",
"l c #D8D8D8",
"z c gray91",
"x c #F8F8F8",
/* pixels */
";;;;;;;;;;;;;;;;;;;;;;;;;;;;;;;",
";;;;;;;;;;;;;;;;;;;;;;;;;;;;;;;",
";;;;;;;;;;;;;;;;;;;;;;;;;;;;;;;",
";;;;;;;;;;;O&&&&&&&&%;;;;;;;;;;",
";;;;;;;;;;y<101<<<,,,O;;;;;;;;;",
";;;;;;;;;;o ==sxxs=o.o;;;;;;;;;",
";;;;;;;;;;ouX       oo;;;;;;;;;",
";;;;;;;;;;;o:js>==ooo;;;;;;;;;;",
";;;;;;;;;;;@#4i52i4#@;;;;;;;;;;",
";;;;;;;;;;;39tgr8gt93;;;;;;;;;;",
";;;;;;;;;;; 9wttttw9 ;;;;;;;;;;",
";;;;;;;;;;:.2rghhgr2 *;;;;;;;;;",
";;;;;;;;dlX  etttte X p-;;;;;;;",
";;;;;;dlllX z577755*X djp;;;;;;",
";;;;;dxdlloXo:.    s dkjj>;;;;;",
";;;;;dddlloXd. :: a jxxljs;;;;;",
";;;;;x>apdaoXddajj*dxjdxld>;;;;",
";;;;;ld--ddo od:jzzlp-xxld>;;;;",
";;;;;lda>;da .o:jaaas-xxld>;;;;",
";;;;;lda>;:d- .X=jjaa>djxd>;;;;",
";;;;;lrr*;->a-   qffexxxlx>;;;;",
";;;;;qr3w;o----X ffqqqlljl>;;;;",
";;;;;qee3;.o===oXffqqqdd>a>;;;;",
";;;;;;q73;o....68qfqq>>>>>;;;;;",
";;;;;;;;;;*oX..83@++***;;;;;;;;",
";;;;;;;;;;-sp>-***=====*;;;;;;;",
";;;;;;;;;;sjkkja:>>:---*;;;;;;;",
";;;;;;;;;>jlzzjja>>::--*;;;;;;;",
";;;;;;;;;ajlzzjjp->::--=;;;;;;;",
";;;;;;;;;asssss::*-::--=;;;;;;;",
";;;;;;;;;sslllja>=o===**;;;;;;;",
";;;;;;;;;sjllllda:=----=;;;;;;;",
";;;;;;;;;;sllllda:=----=;;;;;;;",
";;;;;;;;;;jllllja:=:---=;;;;;;;",
";;;;;;;;;;kllllldp-::--=;;;;;;;",
";;;;;;;;;;lllllll::>>--==;;;;;;",
";;;;;;;;;alpjjjdl::>>-=-=;;;;;;",
";;;;;;;;;dpdjjjd>a-===*o=;;;;;;",
";;;;;;;;;-:sdjdsp-o***o.;;;;;;;",
";;;;;;;;;;->sssap=..... ;;;;;;;",
";;;;;;;;;;-:>>>:=.     ;;;;;;;;",
";;;;;;;;;;;       $$   ;;;;;;;;",
";;;;;;;;;;;$$$$$       ;;;;;;;;",
";;;;;;;;;;;$$$$$  $    ;;;;;;;;",
";;;;;;;;;;;$$$$$  $$$$$;;;;;;;;",
";;;;;;;;;;;;$$$$ ;     ;;;;;;;;",
";;;;;;;;;;;; $$$ ;;;;;;;;;;;;;;",
";;;;;;;;;;;$$$$$$ ;;;;;;;;;;;;;",
";;;;;;;;;;;$$$$$$.;;;;;;;;;;;;;",
";;;;;;;;;;;$$$$$$.;;;;;;;;;;;;;"
};
