/* XPM */
static char *result[] = {
/* columns rows colors chars-per-pixel */
"31 50 51 1 ",
"  c black",
". c #202020",
"X c #282828",
"o c gray22",
"O c #700000",
"+ c #503818",
"@ c #584020",
"# c #684820",
"$ c #000040",
"% c #000048",
"& c #000078",
"* c #484848",
"= c #505050",
"- c #606060",
"; c #63747D",
": c gray44",
"> c gray47",
", c #A00000",
"< c #E00000",
"1 c #F80000",
"2 c #805028",
"3 c #905830",
"4 c #986038",
"5 c #A06038",
"6 c #F87800",
"7 c #A86840",
"8 c #B07040",
"9 c #B87848",
"0 c #F05050",
"q c #C87848",
"w c #D08050",
"e c #D88850",
"r c #E88858",
"t c #F09058",
"y c #F8A070",
"u c #0000A0",
"i c #0000A8",
"p c #0000B0",
"a c #888888",
"s c #989898",
"d c gray66",
"f c gray69",
"g c #F8B080",
"h c #F8B890",
"j c #F8C0A0",
"k c #F8D0B8",
"l c #C0C0C0",
"z c #D0D0D0",
"x c #D8D8D8",
"c c gray91",
"v c #F8F8F8",
/* pixels */
";;;;;;;;;;;;;;;;;;;;;;;;;;;;;;;",
";;;;;;;;;;O&&&&&&&&%O;;;;;;;;;;",
";;;;;;;;;u<101<<<,,,O;;;;;;;;;;",
";;;;;;;;;o ==dvvd=o.o;;;;;;;;;;",
";;;;;;;;;oiX       oo;;;;;;;;;;",
";;;;;;;;;;o:ld>==ooo;;;;;;;;;;;",
";;;;;;;;;;@#4p52p4#@;;;;;;;;;;;",
";;;;;;;;;;39yht8hy93;;;;;;;;;;;",
";;;;;;;;;;;9eyyyye9;;;;;;;;;;;;",
";;;;;;;;;; 2thkkht2 ;;;;;;;;;;;",
";;;;;;;;;;.2ryyyyr2 *;;;;;;;;;;",
";;;;;;;;;X  577755 * :;;;;;;;;;",
";;;;;;;dxX c 9r97+*> a>s;;;;;;;",
";;;;;;zvvoXof.    d aafss;;;;;;",
";;;;;vvxvoX:. ::   lfdlss>;;;;;",
";;;;vcxlf-oX:slslffffffs>->;;;;",
";;;;vxzlalo o:s:lfzzzdd:>->;;;;",
";;;vxzlda:> .o::lsddd>>*-=-=;;;",
";;;svdd>=:>o .o:=>sss--o====;;;",
";;;lss--*->>o   o=>-->==**==;;;",
";;;vvls>*o---oX  .o=-*o---:=;;;",
";;;vcld--oo===oX.    .X-ad>=;;;",
";;;lxcjjw.....683.....;>ada=;;;",
";;;;lhjyy.....83@....X;>qrr=;;;",
";;;;lhgqqo*************-rq8=;;;",
";;;;;hrq7::>>>>:-----=*;884;;;;",
";;;;;rq7>>>>adls::::-=*;444;;;;",
";;;;;;;;a:::>>fs-:::-=*;;;;;;;;",
";;;;;;;;:aasffs==:::-=*;;;;;;;;",
";;;;;;;;asffflf:==---=*;;;;;;;;",
";;;;;;;;fffzzzla=::::-=;;;;;;;;",
";;;;;;;slzzzzzfa:>aaa>;;;;;;;;;",
";;;;;;;lzzzzzfza>>aaa>=;;;;;;;;",
";;;;;;;lldddsasl>>aaa>=;;;;;;;;",
";;;;;;;s>aaaaa:a>>ass>=;;;;;;;;",
";;;;;;;:>>>>aa:a>>aaas>;;;;;;;;",
";;;;;;;-----:::a:aa>>>a-;;;;;;;",
";;;;;;;*------*=::---:--;;;;;;;",
";;;;;;;; *****  -====-*;;;;;;;;",
";;;;;;;;$     .X*====*X;;;;;;;;",
";;;;;;;;$$     $$$    ;;;;;;;;;",
";;;;;;;;;$$$   $$$    ;;;;;;;;;",
";;;;;;;;;$     $$$$   ;;;;;;;;;",
";;;;;;;;;$$$$  $      ;;;;;;;;;",
";;;;;;;;$$$$$  ;     ;;;;;;;;;;",
";;;;;;;;$$$$$$ ;$$$   ;;;;;;;;;",
";;;;;;;;;$$$$ ; $$$$$ ;;;;;;;;;",
";;;;;;;;;;;;;;;$$$$$$ ;;;;;;;;;",
";;;;;;;;;;;;;;;$$$$$$ ;;;;;;;;;",
";;;;;;;;;;;;;;;;;;;;;;;;;;;;;;;"
};
