/* XPM */
static char *result[] = {
/* columns rows colors chars-per-pixel */
"64 64 75 1 ",
"  c black",
". c #282008",
"X c #382810",
"o c #202020",
"O c #282828",
"+ c gray19",
"@ c gray22",
"# c #400000",
"$ c #480000",
"% c #500000",
"& c #600000",
"* c #700000",
"= c #403018",
"- c #483818",
"; c #503818",
": c #584020",
"> c #684820",
", c #704828",
"< c #000048",
"1 c #004040",
"2 c #005858",
"3 c #007070",
"4 c gray25",
"5 c #484848",
"6 c #505050",
"7 c #606060",
"8 c #63747D",
"9 c gray44",
"0 c gray47",
"q c #800000",
"w c #880000",
"e c #980000",
"r c #A00000",
"t c #B00000",
"y c #B80000",
"u c #D00000",
"i c #F80000",
"p c #805028",
"a c #885830",
"s c #905830",
"d c #986038",
"f c #A06038",
"g c #A86840",
"h c #B07040",
"j c #B87848",
"k c #C87848",
"l c #D08050",
"z c #D88850",
"x c #E88858",
"c c #F09058",
"v c #F89860",
"b c #F8A070",
"n c #000098",
"m c #008080",
"M c #00B0B0",
"N c #00C8C8",
"B c #00E0E0",
"V c #20F8F8",
"C c #78F8F8",
"Z c #888888",
"A c #989898",
"S c gray66",
"D c gray69",
"F c #F8B080",
"G c #F8B890",
"H c #F8C0A0",
"J c #F8C8B0",
"K c #F8D0B8",
"L c #B8F8F8",
"P c #C0C0C0",
"I c #D0D0D0",
"U c #D8D8D8",
"Y c #D8F8F8",
"T c gray91",
"R c #F8F8F8",
/* pixels */
"8888888888888888888888888888OOOO@O   888888888888888888888888888",
"88888888888888888888888888oOOOOO5O     8888888888888888888888888",
"8888888888888888888888888oOOOOO@5O      888888888888888888888888",
"888888888888888888888888ooOOOOO@7O       88888888888888888888888",
"8888888888888888Mmmmm88ooOZODOI57@ 7 7 5  88mCmmm888888888888888",
"888888888888888C1o5Oo28ooOOOO@5505        8m1o5Oo288888888888888",
"88888888888888M1o5S7Oo1@o ama:50D5 :aaa@  m1o5S7Oo18888888888888",
"88888888888888m1o575Oo15@ hVbjjdaa7Z7bf@ 9m1o575Oo18888888888888",
"8888888888888wu21oOOo17P5 dCpxGbl7TbT7AIIR 21oOOo1uw888888888888",
"888888888888euw8111118794 hYn<qf,ZbJbZADAT 8111118wu%88888888888",
"888888888888t&888m81887++ hCvxxFv7TbT7s@ 9 88m81888r%88888888888",
"888888888888w%%88B83886++ fCKHHFHl7Z7ks@ o 88B8388&%%88888888888",
"8859S6@88888%###8B8m885++ aVFFlfaalzhsg@   88B8m8&&#%8888OOOOO88",
"888oO775OO888###mB3m385++ pVbhcbcbchbl>@   omB3m3###855OOOOOo888",
"8888oo@@@@Ooo8#NLNNNL3ooo sVbhPIUIPhblg@   NLNNNL3##75OOoooo8888",
"8888ooooooo@ooom2222222   aVbkPIUIPkbla@  +22222212AOooo    8888",
"888oo5ooo     o+1111111ooo@mlFvFGFvFd@@   +1111111Ooooo o o  888",
"86o@7@oooooo o+++1+1+++ooooo@@5dad5@@    o+++1+1++oooOoooo o oo8",
"8oS7@ooOoooo oOOOOOOOOOOo oooooo        oOOOOOOOOOO o@ooooo ooo8",
"88o95O@ooooo oO+++++OOOOOOo           o+++OOOOOOOOO o7oooooooo88",
"88 o@@@666665@+7765++++++++1+++oS765444+++++++++++666665@oOoo 88",
"88   76@oCM2oo@@ooooooooooooooo OOoooooooooooooo76@oCM2oo@@   88",
"88O 0@ooM1 12ooooooooooooooooo  OOooooooooooooo0@ooM1 12oooo O88",
"88O7@ooo3   2ooooooooooooooooo  OOoooooooooooo7@ooo3   2oooooO88",
"886@CM2o21 11om22ooooooooooooo  OOOoooooooooo6@CM2o21 11om22oo88",
"886M1 12o221om1 12oooooooooooo  OOOoooooooooo6M1 12o221om1 12o88",
"86@3   2ooooo2   2o ooooooooo   OOOooooooooo6@3   2ooooo2   2o 8",
"86@21 11om22o21 11o ooooooooo  $$OOooooooooo6@21 11om22o21 11o 8",
"86@o221om1 12o221oo            $&OO         6@o221om1 12o 21oo 8",
"86@ooooo2   2oooooo           $*&&          6@ooooo2   2oo ooo 8",
"86ooB32o21 11o322oo $$$$$$$$$$&wwww&$$$$####6ooB32o21 11o322oo 8",
"86oM1 12o221o31 12o $$&&eyyiyeewwwqqqq&$##$$6oM1 12o221o31 12o 8",
"86o3   2ooooo2   2oO5A5&*eiyeiewwwwqwq&&#&$$6o3   2ooooo2   2o 8",
"88o21 11o322o21 11 @@7oo@696@Ooooooooooooo 9Ao21 11o322o21 11 88",
"88oo221o31 12o221o O5@oooOOOoooooooooooo@59@@oo221o31 12o221o 88",
"888ooooo2   2oooo OO@Ooooo             @5OO@@@Ooooo2   2oooo 888",
"8888oooo21 11ooo       oooo oooooooooo@OoOOOo  oooo21 11ooo 8888",
"88888oooo221oo  ooooooo  ooo ooooooo ooooo   O@@oooo221oo  88888",
"888888,-     =oO+@@0Oooo  oo ooooooo ooo  ooO+@5oo,-     =888888",
"888888xx>>>--=OO+@46oooo o              ooOO+@45ooxx>>>--=888888",
"888888om11111OO++@65oooo o            o oOOO+@56Ooom111118888888",
"8888888888OoOOO+@@46oooo o            o oOOO@457Ooooo   88888888",
"8888888888OoOOO@@465ooo o               ooO+@460@oooo o 88888888",
"8888888888OoOO+@456oooo o     888888    ooO+@560@oooo o 88888888",
"8888888888OoOO+@45@oooo o    88888888   ooO+@560@oooo o 88888888",
"888888888o@@5667700SS6Oo o   8888888   o oO@46705oooo o 88888888",
"888888888oooooooooo@66@@@O  88888888   oO o@567D7@ooo  O 8888888",
"8888888888             oOOOo88888888 oo oO            Ooo8888888",
"8888888888                oo88888888 ooo O5@O      O5Oo o8888888",
"888888888oO@@556677S@Oo     888888888 oOO  5799S976@+o oo8888888",
"888888888oooooO@@@@@OOOOOo 8888888888  oOO  oooooooo  Oo88888888",
"8888888888              oO 8888888888    oOO          o 88888888",
"8888888888  o ooOO57o     88888888888   o O++@4554@+OO 888888888",
"88888888888 o oooO@5o    8888888888888     ooooooooooo8888888888",
"88888888888  o ooO@O     8888888888888              888888888888",
"888888888888  o ooo@o    8888888888888              888888888888",
"8888888888888   oooO     8888888888888              888888888888",
"888888888888   @@606Oo    8888888888888            8888888888888",
"888888888888O@@555@@@@@o  8888888888888            8888888888888",
"88888888888@@OOOOOOoooOOo 88888888888888          88888888888888",
"8888888888@OOoooooooooooO ..XXXX===----==X      8888888888888888",
"8888888888Ooo       oo  o .............................XX=;>8888",
"8888888888               .................XXXXXXXXXXXXXXX==;>888",
"8888888888>>>;;;----========================------;;;;;,,8888888"
};
