/* XPM */
static char *result[] = {
/* columns rows colors chars-per-pixel */
"64 64 70 1 ",
"  c black",
". c #282008",
"X c #382810",
"o c #202020",
"O c #282828",
"+ c gray19",
"@ c gray22",
"# c #400000",
"$ c #480000",
"% c #500000",
"& c #600000",
"* c #700000",
"= c #403018",
"- c #483818",
"; c #503818",
": c #584020",
"> c #684820",
", c #704828",
"< c #004040",
"1 c #005858",
"2 c #007070",
"3 c gray25",
"4 c #484848",
"5 c #505050",
"6 c #606060",
"7 c #63747D",
"8 c gray44",
"9 c gray47",
"0 c #800000",
"q c #880000",
"w c #980000",
"e c #A00000",
"r c #B00000",
"t c #B80000",
"y c #C80000",
"u c #D00000",
"i c #F80000",
"p c #805028",
"a c #885830",
"s c #905830",
"d c #986038",
"f c #A06038",
"g c #B07040",
"h c #C87848",
"j c #D08050",
"k c #D88850",
"l c #F09058",
"z c #F89860",
"x c #F8A070",
"c c #008080",
"v c #00B0B0",
"b c #00C8C8",
"n c #00E0E0",
"m c #20F8F8",
"M c #78F8F8",
"N c #888888",
"B c #989898",
"V c gray66",
"C c gray69",
"Z c #F8B080",
"A c #F8C0A0",
"S c #F8C8B0",
"D c #F8D0B8",
"F c #B8F8F8",
"G c #C0C0C0",
"H c #D0D0D0",
"J c #D8D8D8",
"K c #D8F8F8",
"L c gray91",
"P c #F8F8F8",
/* pixels */
"7777777777777777777777777777777777777777777777777777777777777777",
"7777777777777777777777777777777777777777777777777777777777777777",
"7777777777777777777777777777777777777777777777777777777777777777",
"7777777777777777777777777777OOOO@O   777777777777777777777777777",
"77777777777777777777777777oOOOOO4O     7777777777777777777777777",
"7777777777777777777777777oOOOOO@4O      777777777777777777777777",
"777777777777777777777777ooOOOOO@6O       77777777777777777777777",
"7777777777777777vcccc77ooONOCOH46@ 6 6 4  7ccMccc777777777777777",
"777777777777777M<o4Oo17ooOOOO@4494        cc<o4Oo177777777777777",
"77777777777777v<o4V6Oo<@o :ca:49C4 :aa:@  c<o4V6Oo<7777777777777",
"77777777777777c<o464Oo<4@ :m::-f,a6N6xf@ 8c<o464Oo<7777777777777",
"7777777777777qu1<oOOo<6G4 pMzAAZA6LxL6BHHP 1<oOOo<uq777777777777",
"777777777777wuq7<<<<<7683 gKDZjfaNxSxNBBBL 7<<<<<7qu%77777777777",
"777777777777r&777c7<776++ gMZflxk6LxL6s@ 8 77c7<777e%77777777777",
"777777777777q%%77n72775++ >MxfBHJH6N6h>@ o 77n7277&%%77777777777",
"7748V5@77777%###7n7c774++ >mxf8$$$8gff>@   77n7c7&&#%7777OOOOO77",
"777oO664OO777###2c2c274++ -mxf$$$$$gxj:@   ocn2c2###744OOOOOo777",
"7777oo@@@@Ooo7#2FbbbFbooo -mxg4yri4gxf;@   bFbbbF2##64OOoooo7777",
"7777ooooooo@oooc1111111   -mxgNyyiNgxf;@  +111111<1BOooo    7777",
"777oo4ooo     o<<<<<<<<ooo@cjggCJCggd@@   +<<<<<<<Ooooo o o  777",
"75o@6@oooooo o++OOO@@@OOoooo@@5>>>5@@    o+++<+<++oooOoooo o oo7",
"7oV6@ooOoooo oOOOOO4o4OOo oooooo        oOO+OOOOOOO o@ooooo ooo7",
"77o84O@ooooo oO+OO@5@OOOOOo           o+++OOOOOOOOO o6oooooooo77",
"77 o@@@555554@+++++++++++++<+++oV654333+++++++++++555554@oOoo 77",
"77   65555554@@@ooo@@@ooooooooo OOoooooooooooooo65555554@@@   77",
"77O 965555554@@@ooo4 4oooooooo  OOooooooooooooo965555554@@@o O77",
"77O6965@oMv1oo@@ooo@5@oooooooo  OOoooo@@@ooooo6965@oMv1oo@@ooO77",
"7756V@oov<<<1ooooooooooo@@@ooo  OOOooo4 4oooo56V@oov<<<1oooooo77",
"7756@ooo<o o<ooooooooooo4 4ooo  OOOooo@5@oooo56@ooo<o o<oooooo77",
"755@Mv1o<   <oc11oo oooo@5@ooo  OOOooooooooo55@Mv1o<   <oc11oo 7",
"755v<<<1<o o<c<<<1o oooooooooo  $OOooooooooo55v<<<1<o o<c<<<1o 7",
"75@<o o<o<<<o<o o<o            #&OO         5@<o o<o<<<o<o o<o 7",
"75@<   <oc11o<   <o           #&&&          5@<   <oc11o<   <o 7",
"75@<o o<c<<<1<o o<o $$$$$$$$$$&qqqq&$$$$####5@<o o<c<<<1<o o<o 7",
"75@o<<<o<o o<o<<<oo $$&&wttitwwqqq0000&$##$$5@o<<<o<o o<o<<<oo 7",
"75oon21o<   <o211oo  $$&*witwiwqqqq0q0&&#&$$5oon21o<   <o211oo 7",
"75ov<<<1<o o<2<<<1o 4V9oo@55@oooooooooooo4VJ5ov<<<1<o o<2<<<1o 7",
"75o<o o<<<<<o<o o<o @5@54OOOooooooooooo@69965o<o o<<<<<o<o o<o 7",
"77o<   <o211o<   <      o4           @454@OO4o<   <o211o<   < 77",
"77o<o o<2<<<1<o o< 46ooo oooooooooooo4@OOo   o<o o<2<<<1<o o< 77",
"777o<<<o<o o<o<<< @4986OO ooo oooooo@OOo  OO@@o<<<o<o o<o<<< 777",
"7777oooo<   <ooo +4486OOoooooo oooooOOo OoOO+@5oooo<   <ooo 7777",
"77777ooo<o o<o  O+486OOooooooo     ooo  OoOOO@5@ooo<o o<o  77777",
"777777ooo<<<oOoO+3B65Oooooooooo    oo  oOoOOO+@5@ooo<<<o77777777",
"7777777oOOoOOOOO+H96Oooooooooo     o o ooOoOOO@5@oo o   77777777",
"7777777oO@@ooooo3336oooooooooo 777    o oOoOOO+@54oo o  77777777",
"77777777oo@@             oooo  777 o    ooOoOOO@455O o   7777777",
"77777777 oO@44@     oOOOOoooo  777      oooooooooooooo o 7777777",
"7777777oo  oO458N86654@Ooooo  777777 ooo O4@O      O4Oo o7777777",
"7777777oO@o ooooooooooo   o   7777777 oOO  4688V865@+o oo7777777",
"77777777oo@Oo            o   77777777  oOO  oooooooo  Oo77777777",
"77777777 oo@@@Oo    oOOOoo   77777777    oOO          o 77777777",
"777777777  o@4455564@Oooo   777777777   o O++@3443@+OO 777777777",
"777777777o                 77777777777     ooooooooooo7777777777",
"7777777777oooo             77777777777              777777777777",
"77777777777                77777777777              777777777777",
"777777777777ooOOOOOoooo    77777777777              777777777777",
"77777777777               7777777777777            7777777777777",
"77777777777@OOOOOOoooOOo  7777777777777            7777777777777",
"7777777777OOoooooooooooO  ======77777777          77777777777777",
"7777777777oo       oo  o  ......===----==X      7777777777777777",
"7777777777               ..............................XX=;>7777",
"7777777777777777==============............XXXXXXXXXXXXXXX==;>777",
"7777777777777777777777777777================------;;;;;,,7777777"
};
