/* XPM */
static char *result[] = {
/* columns rows colors chars-per-pixel */
"64 64 73 1 ",
"  c black",
". c #282008",
"X c #382810",
"o c #202020",
"O c #282828",
"+ c gray19",
"@ c gray22",
"# c #400000",
"$ c #480000",
"% c #500000",
"& c #600000",
"* c #700000",
"= c #403018",
"- c #483818",
"; c #503818",
": c #584020",
"> c #684820",
", c #704828",
"< c #000048",
"1 c #004040",
"2 c #005858",
"3 c #007070",
"4 c gray25",
"5 c #484848",
"6 c #505050",
"7 c #606060",
"8 c #63747D",
"9 c gray44",
"0 c gray47",
"q c #800000",
"w c #880000",
"e c #980000",
"r c #A00000",
"t c #B00000",
"y c #B80000",
"u c #D00000",
"i c #F80000",
"p c #805028",
"a c #885830",
"s c #986038",
"d c #A06038",
"f c #B07040",
"g c #B87848",
"h c #C87848",
"j c #D08050",
"k c #D88850",
"l c #E88858",
"z c #F09058",
"x c #F89860",
"c c #F8A070",
"v c #000098",
"b c #008080",
"n c #009898",
"m c #00B0B0",
"M c #00C8C8",
"N c #00E0E0",
"B c #20F8F8",
"V c #78F8F8",
"C c #888888",
"Z c #989898",
"A c gray66",
"S c gray69",
"D c #F8B080",
"F c #F8B890",
"G c #F8C0A0",
"H c #F8C8B0",
"J c #F8D0B8",
"K c #B8F8F8",
"L c #C0C0C0",
"P c #D0D0D0",
"I c #D8D8D8",
"U c #D8F8F8",
"Y c gray91",
/* pixels */
"8888888888888888888888888888888888888888888888888888888888888888",
"8888888888888888888888888888OOOOO@O   88888888888888888888888888",
"88888888888888888888888888ooOOOOO5O     888888888888888888888888",
"8888888888888888888888888o5OOOOO@5@      88888888888888888888888",
"888888888888888888888888o5L5OOOO@7@      88888888888888888888888",
"8888888888888888mmbbbb8oo55ZOSOY575 6 @ @ bbVbbb8888888888888888",
"888888888888888VU1o5Oo2oooOOOO@5500       11o5Oo2888888888888888",
"88888888888888mm1o596Oo2oo bbaa:50S5 :a@@   596Oo188888888888888",
"88888888888888bb1o56@Oo2@@ BMcggsaa7C7c@@6  56@Oo188888888888888",
"8888888888888wwu21oOOo1L55 UnplFcj7YcY770A 1oOOo1w88888888888888",
"888888888888euww11111179@o Ubv<qd,CcHcC70A 11111ur88888888888888",
"88888888888tt&888bb11876@o UMxllDx7YcY7@@6 o1OO8rr%8888888888888",
"88888888888ww%%88NN12866@o VMJGGDGj7C7h@@o o2O18r%%8888888888888",
"88559A6@888%%####NN12856@o BMDDjdaajkdd@@  o2O18&#%88888OOOOO888",
"888ooOU75OO8#####bN1b355Oo BMcfzczczhld@@  22O11###855OOOOOo8888",
"8888ooo@@@@Ooo##MKMMMK3ooo BMcfLPIPZhld@@  3n333n##75OOoooo88888",
"8888oooooooo@ooob2222222   bMchLPIPZhld@@ o1111112ZOooo    88888",
"888oo5Oooo     o+1111111oo @bjDxDFDxls@@  oOOOOOOOoooo o o  8888",
"8oL77OOoooooo o++@@2@2@+ooooo@@5sas5@@   ooooOoOooooOoooo o oo88",
"8ooU6OooOoooo oOO@@@@@@@Oo oooooo        ooooOOOOO oOooooo ooo88",
"88oo6@O@ooooo oO+@@@@@@@OOOo           oOOOOOOOOOO oOoooooooo888",
"888 o@@@666@o56666655544@@+21+++o9Y95444++++++++++6666665@oOoo88",
"88   oo77@776@oVm2oo@ooooooooooo o6Oooooooooooo@776@oVm2oo@@ 888",
"88    0Z@0Z@oom1 12ooooooooooooo o6Ooooooooooo@00@oom1 12oooo 88",
"8  oo77@77@ooo3   2ooooooooooooo o6@oooooooooo77@ooo3   2ooooo88",
"8  o66@56@Vm2o21 11ob22oooooooo  o56Ooooooooo@6@Vm2o21 11ob22oo8",
"88o 65@66m1 12o221ob1 12ooooooo  o@6Ooooooooo56m1 12o221ob1 12o8",
"88o66@56@3   2ooooo2   2ooooooo  oO6Oooooooo@6@3   2ooooo2   2o8",
"88o66@66o21 11ob22o21 11ooooooo $$O5Oooooooo56@21 11ob22o21 11o8",
"88o66o66oo221ob1 12o221oo       $&OO        56@o221ob1 12o221oo8",
"8  55o55oooooo2   2oooooo       *&&         56@ooooo2   2oooooo8",
"8oo66o66ooN32o21 11o322oo$$$$$$&wwww&$$$####56ooN32o21 11o322oo8",
"8oo55o55om1 12o221o31 12oyyyiyeewwwqqqq$##$$56om1 12o221o31 12o8",
"8oO55o55o3   2ooooo2   2oeeiyeiewwwwqwq&#&$$56o3   2ooooo2   2o8",
"8oO @@o@o21 11o322o21 11o@96@Oooooooooooo6AA5oo21 11o322o21 1188",
"88    o@@o221o31 12o221o655Oooooooooooo@70005ooo221o31 12o221o88",
"88     ooooooo2   2ooooO@OO5          @65@57Oooooooo2   2oooo888",
"888       @ooo21 11oooooo   OooooooooO5@OO@7O oooooo21 11ooo8888",
"8888    agooooo221oo          ooooooo5OOOO@  oooooooo221oo 88888",
"888888  allgo      =+ooo       ooooooOOOo oooOOooo        888888",
"88888888allfa>--=oo++5Oo            Oooo oo6O@Oooooll>>--=888888",
"888888888bbbb111OooO+5o             ooo ooO0O5@Oooobb11118888888",
"8888888888oo oOooooO+@o                oooO766OOooooo   88888888",
"888888888oO@ oOooooOO@o              o oooO5@7@@Ooooo o 88888888",
"888888888oO@@ooooooOO+o        8888  o oooO@O0@5Ooooooo 88888888",
"8888888888oo@@oooooOO+o       8888888ooOoOO766Oo57775@@@88888888",
"8888888888  O@55@@OOoooOOOOo  8888888ooooOOPP077555@@oo  8888888",
"888888888o    O566777706OOooo88888888oooO700@oooooooooo  8888888",
"888888888oO@  ooooooo@@o    o888888888o77@              88888888",
"888888888ooo@O              88888888887@                88888888",
"8888888888  o@@@O      OOOoo8888888888   @70P07666555@@oo8888888",
"88888888888   @5566675@Oooo888888888888 @755@@@@@@ooooooo8888888",
"88888888888o              8888888888888 @               88888888",
"88888888888oo ooooOOo     888888888888888 oo6OOOOO      88888888",
"888888888888oo ooooOo    8888888888888888 oo5oOOO5      88888888",
"888888888888              8888888888888888 o@5OO@6     888888888",
"888888888888ooOOOOOoooo   8888888888888888 oo@oO@6     888888888",
"88888888888               88888888888888888 oo@O@0     888888888",
"8888888888@@OOOOOOoooOOo  88888888888888888  ooO606@@o 888888888",
"8888888888OOoooooooooooO ..XX==--888888888  o@555@@@@@@O88888888",
"8888888888oo       oo  o ........X=--==XX  O@@@OOOOOOOOOO8888888",
"8888888888              .................  @OOOOoooooooooo-;>888",
"8888888888888888>>>;;--=====XXXXX......... ooooo        ooX-;>>8",
"8888888888888888888888888888,,;;;;----===XX               X-;>>8"
};
