/* XPM */
static char *result[] = {
/* columns rows colors chars-per-pixel */
"64 64 72 1 ",
"  c black",
". c #282008",
"X c #382810",
"o c #202020",
"O c #282828",
"+ c gray19",
"@ c gray22",
"# c #400000",
"$ c #480000",
"% c #500000",
"& c #600000",
"* c #700000",
"= c #403018",
"- c #483818",
"; c #503818",
": c #584020",
"> c #684820",
", c #000048",
"< c #004040",
"1 c #005858",
"2 c #007070",
"3 c gray25",
"4 c #484848",
"5 c #505050",
"6 c #606060",
"7 c #63747D",
"8 c gray44",
"9 c gray47",
"0 c #800000",
"q c #880000",
"w c #980000",
"e c #A00000",
"r c #B00000",
"t c #B80000",
"y c #D00000",
"u c #E00000",
"i c #F80000",
"p c #885830",
"a c #986038",
"s c #A06038",
"d c #B07040",
"f c #B87848",
"g c #F05050",
"h c #C87848",
"j c #D08050",
"k c #D88850",
"l c #E88858",
"z c #F09058",
"x c #F89860",
"c c #F8A070",
"v c #008080",
"b c #009898",
"n c #00B0B0",
"m c #00C8C8",
"M c #00E0E0",
"N c #20F8F8",
"B c #78F8F8",
"V c #888888",
"C c #989898",
"Z c gray66",
"A c gray69",
"S c #F8B080",
"D c #F8B890",
"F c #F8C0A0",
"G c #F8C8B0",
"H c #B8F8F8",
"J c #C0C0C0",
"K c #D0D0D0",
"L c #D8D8D8",
"P c #D8F8F8",
"I c gray91",
"U c #F8F8F8",
/* pixels */
"7777777777777777777777777777777777777777777777777777777777777777",
"777777777777777777777777777OOOO@O   7777777777777777777777777777",
"7777777777777777777777777oOOOOO4O     77777777777777777777777777",
"777777777777777777777777oOOOOO44O      7777777777777777777777777",
"77777777777777777777777ooOOOOO46O       777777777777777777777777",
"77777777777777777nvvvv1OVOIOI46@ 6 6 4  77vBvvv<7777777777777777",
"7777777777777777B<o4OooOOOO@4A64         v<o4Oov<777777777777777",
"777777777777777n<o4Z6OO  vv49I4 :pppp@o v<o4Z6Oov<77777777777777",
"777777777777777v<o464OO  Nnffap6V6ck@o8 v<o464Oov<77777777777777",
"777777777777777qv<oOOoO  BnlDc6IcI6CKKU@ v<oOOov<yy7777777777777",
"77777777777777wy&vvvvvO  P2,0sVcGcVCKKU@  vvvvv<qqqy777777777777",
"77777777777777r&#7v1<<O  BnllS6IcI6s@o8   7v2<<777&e%77777777777",
"77777777777777q%#7M12<O  BBFFSFj6V6hs@oo  7M2b177&&%%77777777777",
"7777885@777777%###M1v<O  NNSjsppjkssk@o   7M2b17&&&#7777OOOOO777",
"77777O6K4OO7777##vM1v<O  NNjzczczdcj>@o  ovM2b1####74644OOOo7777",
"77777oo@@@@Ooo77mHmmmHO  NNjCKLKJdcjd@o  mHmmmH2###69OOoooo77777",
"77777ooooooo@ooov22222O  NNjCKLKJhcjp@o  122222<11C4ooo    77777",
"7777oo@OOo     O+11111oo@vvSxSDSxSa@@Oo  111111<OOoooo o o  7777",
"775o@@8OOoooo O@@@1@1@Oooo@@4apa4@@OOo  o+@1<1<@@ooo4oooo o oo77",
"77o8@C8OOoOooO@@@@@@@@@O oOOOOOOOOOo   oO@@@@@@@@o o6ooooo ooo77",
"777o8KO@ooOoO@@@@@@@@@@@@O           o+@@@@@@@@@@o o9oooooooo777",
"77 o@@@55554@@o  666555544444 oIV88866555554443355554@@@@oOoo 77",
"77   5@oBn1OO@@Oo oOOOOOOOOOo  V4@@@++OOOOOOOOO@oBn1O@@O@@@   77",
"77O @OOn< <1OOOoo  oOOOOOOOO   4@@+OOOOOOOOOO@@@n< <1O@@Oooo O 7",
"77O@OOO2   1OOOOoo  OOOOOOOO   4+OOOOOOOOOOO@@@@2   1O@@@OoooO 7",
"77@Bn1O1< <<oBn1Ooo oOOOOOOo   @@OOOOOOOOOO@Bn1O1< <<oBn1OOooo 7",
"77n< <1O11<On< <1oo  OOOOOOo   O4OOOOOOOOOOn< <1O11<on< <1o    7",
"7@2   1OOOOO2   1o   OOOOOO    O4OOOOOOOOO@2   1oOOOO2   1o    7",
"7@1< <<oBn1O1< <<o   OOOOOo   $$4OOOOOOOOO@1< <<oBn1O1< <<o    7",
"7@O11<On< <1O11<oO            $&@O        @@11<on< <1O11<oO    7",
"7@OOOOO2   1OOOOOO           $*&          @@@OOO2   1oOOOOO    7",
"7OoBn1O1< <<oBn1OO   $$$$$$$$$&qqqq&$$$$##@oBn1O1< <<oBn1OO    7",
"7On< <1O11<On< <1O   $&&wtgitwwqqqu000&$##@n< <1O11<on< <1o    7",
"7O2   1OOOOO2   1o   C4&*wgtwiwqqqq0q0&&#&@2   1o@OOO2   1o    7",
"771< <<oBn1O1< <<   O6oo@585@OooooooooooO461< <<oBn1O1< <<     7",
"77O11<On< <1O11<o   O4oooOOOoooooooooo@55@OO11<on< <1O11<o    77",
"777OOOO2   1OOOo   OO4oooo           @4Ooooo@OOO2   1o@OO     77",
"7777OOO1< <<OOo        oooo Oooooooo@Ooooooo @@@1< <<o@O     777",
"77777OOO11<Oo   ooooooo  oo  ooooooOoooo    oo@@O11<o@     77777",
"777777-     ==OOOO+@@6Oo      ooooooo   ooooOooo@     =====77777",
"777777llll>>-=OOO++@69oo o             oooooOoooo7llll>--==77777",
"7777777vvv<<<oOOO++93@oo o           o ooooo@oooo77vvv<<<<777777",
"777777777oooOoOOO++@9@oo o           o ooooo@Ooooo oo 7777777777",
"777777777oooOoOO++@@Z6oo o           o  oooo@Ooooo oo 7777777777",
"777777777oooOOO++@@9Zoo o    77777   o  ooooO@ooooo o 7777777777",
"777777777oooOOO++@9Z@oo o   7777777   o ooooO@Ooooo o 7777777777",
"7777777o@@@4666699KK55Oo   7777777   o  ooooO4Ooooo o 7777777777",
"7777777ooooooooooo@555@O  77777777   oO  oooO4Ooooo  O 777777777",
"77777777            ooOOOo 7777777 oo oOO@O      O@OOoo777777777",
"77777777                ooo7777777 ooo   o@456544@+oo o777777777",
"7777777oO@@4455566K@OOo   777777777 oOO   oooooooo   oo777777777",
"7777777oooooO@@@@@@OOOOo 7777777777  oOOOO          Oo7777777777",
"77777777              oO 77777777777   oO++@3443@+OOo77777777777",
"77777777  o OooOO@Oo     77777777777  o  ooooooooooo777777777777",
"777777777  o O@ooO@Oo    7777777777  oo            7777777777777",
"777777777 oo @ooO4O     77777777777  oo            7777777777777",
"777777777  o 4ooo5o    777777777777  oooooooo o   77777777777777",
"7777777777   4oo6O     777777777777  oo           77777777777777",
"7777777777  @@595Oo   7777777777777  oOOOooooo  oo77777777777777",
"777777777O@@444@@@@@o  7777777777777 OOooo        o7777777777777",
"77777777@@OOOOOOoooOOo  XXXXXX===---oooo           7777777777777",
"7777777@OOoooooooooooO  ...........XX              X=-;777777777",
"7777777Ooo       oo  o .................XXXXXXXXXXXX=---;;777777",
"7777777               XX=========---------;;;;;;;777777777777777"
};
