/* XPM */
static char *result[] = {
/* columns rows colors chars-per-pixel */
"64 64 53 1 ",
"  c black",
". c #282008",
"X c #382810",
"o c #202020",
"O c #282828",
"+ c gray19",
"@ c gray22",
"# c #400000",
"$ c #480000",
"% c #500000",
"& c #600000",
"* c #403018",
"= c #483818",
"- c #503818",
"; c #584020",
": c #684820",
"> c #704828",
", c #004040",
"< c #005858",
"1 c #007070",
"2 c #484848",
"3 c #505050",
"4 c #606060",
"5 c #63747D",
"6 c gray44",
"7 c gray47",
"8 c #800000",
"9 c #880000",
"0 c #980000",
"q c #A00000",
"w c #B00000",
"e c #D00000",
"r c #805028",
"t c #885830",
"y c #905830",
"u c #A06038",
"i c #B07040",
"p c #D08050",
"a c #D88850",
"s c #F8A070",
"d c #008080",
"f c #009898",
"g c #00B0B0",
"h c #00C8C8",
"j c #00E0E0",
"k c #78F8F8",
"l c #888888",
"z c #989898",
"x c gray66",
"c c gray69",
"v c #C0C0C0",
"b c #D0D0D0",
"n c #D8D8D8",
/* pixels */
"5555555555555555555555555555555555555555555555555555555555555555",
"5555555555555555555555555555555555555555555555555555555555555555",
"5555555555555555555555555555555555555555555555555555555555555555",
"5555555555555555555555555555555555555555555555555555555555555555",
"5555555555555555555555555555555555555555555555555555555555555555",
"5555555555555555555555555555555555555555555555555555555555555555",
"5555555555555555555555555555555555555555555555555555555555555555",
"5555555555555555555555555555555555555555555555555555555555555555",
"5555555555555555555555555555555555555555555555555555555555555555",
"5555555555555555555555555555555555555555555555555555555555555555",
"5555555555555555555555555555555555555555555555555555555555555555",
"5555555555555555555555555555555555555555555555555555555555555555",
"5555555555555555555555555555555555555555555555555555555555555555",
"5555555555555555555555555555555555555555555555555555555555555555",
"5555555555555555555555555555555555555555555555555555555555555555",
"5555555555555555555555555555555555555555555555555555555555555555",
"5555555555555555555555555555OOOO2O   555555555555555555555555555",
"55555555555555555555555555oOOO@@3O     5555555555555555555555555",
"5555555555555555555555555ooOO@@27O      555555555555555555555555",
"555555555555555555555555oooOOO@23O       55555555555555555555555",
"55555555555555555555555oooOOOOO@@O        5555555555555555555555",
"5555555555555555gkkjg55oooOOOOO@@O        5<gkkjd555555555555555",
"555555555555555kgggff<5oooOOOOO@@O        <ffkjff<55555555555555",
"55555555555555gkgdgdd<,ooobOOOOOOo     2  <dfgfdd<,5555555555555",
"55555555555559gkgdgdd<,oo  o4ooooo   4    <ddgddd<,9555555555555",
"55555555555559gg,o2Oo<,@o    o4oo  2      <d,o2Oo<,9555555555555",
"5555555555550eg,o2x4Oo,2+ ;,         *;o  <,o2x4Oo,e%55555555555",
"555555555555w&d,o242Oo4++ ;d<;     ;tt;o  <,o242Ooeq%55555555555",
"5555555555555%e<,oOOo,4+o ;fd;=u>t464uro 6 <,oOOo,9%O55555555555",
"552v33@555555@9o,,,,,o4+o rhdiiua4vsz46662 o,,,,,o&#O@555OO2OO55",
"5526643222@o@ooO<,,,,o3+o :hdpuyyl464r:o o o<,,,,ooo@22@OOOOO@55",
"5526432@@@OoooO@1,<,<,o+o =hdy8$$$8yr==o   o1,<,<ooo2@OOOOOO@255",
"55@3632@OOOooo@11,<,<1oo  =dd:499w4:r=oo   11,<,<1oO@OOOOOO@2555",
"5552@632OOOooo2<f<<<f<Ooo o,<:yzzzy=:oo    <f<<<f<ooOOOOO@@2o555",
"5324oo@63@Oooo23O,,,,OO@Oo oo======oo   oooO,,,,,OOo6oo@@2oo oo5",
"5642@   o3@@ O@2342@OOO@2Oo  ooooooo   ooOoOOOOOOOOo3x32Oo    o5",
"5422Oo       O++@@OOooOO@2Oo          ooO@@@@OOOOOo  Ooo     oo5",
"532@oo       OoOOOOo@@@oO@2@Oo       ooO@222@@@@@Oo  Oo     ooo5",
"5o2@oo       Ooooooo2 2oooO@2Oo     oOO@2233222@@Oo  @o    ooo55",
"55o2Oo       Ooooooo@3@oooOOO@Oo  ooOO@22333322@@Oo  2ooooOoo 55",
"55 o@Oo    o  OOOOOOOOOO@@22332@o 7nc633333333332Oo  22@OOo   55",
"55  oOOOoooo                   o  3Ooo                         5",
"55 O              o o          o  @Oo                OO O      5",
"5  O  @3lxxl3@o    o  o  o        @Oo                OO O      5",
"5 O3@43347632@@@       oo         OOo   o o      @333332@O     5",
"5 O@743@Okg<ooO@@                  Oo    oo    @43333332@@@    5",
"5 @47@Oog,,,<oooO@ o               oo         @743@okg<oo@@o   5",
"5 34@ooo,o o,ooooOOooOOOOOOOOoo     oOOOOOOOO@47@oog,,,<ooooo  5",
"5@3@kg<o,   ,od1<oOoooo                     @34@ooo,o o,oooooo55",
"533g,,,<,o o,d<,,do   ooOo                  23@kg<o,   ,od<<oo55",
"53@,o o,o,,,o,o o1o      oOo oooooooo@O    @33g,,,<,o o,d,,,<o 5",
"53@,   ,od<<o,   ,o      ooOo     o@@O     O3@,o o,o,,,o,o o,o 5",
"53@,o o,d,,,<,o o,o      o  oo    @O       O3@,   ,od<<o,   ,o 5",
"53@o,,,o,o o,o,,,oo      o       o   o     O3@,o o,d,,,<,o o,o 5",
"53ooj1<o,   ,o1<<oo     oo           o     O3@o,.,o,o o,o,,,oo 5",
"53og,,,<,o o,1,,,<o     o            O     O3ooj.<o,   ,o1<<oo 5",
"53o,o o,,,,,o,o o,o     o      5     oo    O3og,,,<,o o,1,,,<o 5",
"55o,   ,o1<<o,   ,     oo      5     oO    O@@,o o,,,,,o,o o,o 5",
"55o,o o,1,,,<,o o,     Oo      5      O    o@o,   ,o1<<o,   , 55",
"555o,,,o,o o,o,,,      @oo     --   o OO  o Oo,o o,1,,,<,o o, 55",
"5555oooo,   ,ooo ooO@@Oooo  o..**    oO@@o O  o,,,o,o o,o,,, 555",
"55555ooo,o o,o             o......          OOOoooo,   ,ooo -555",
"55--=**..,,,             oo........          oOoooo,o o,o  *---5",
"555---=*XXXXXXXXXXXXXXXXXXXXXXXXXXXXXXXXXXXXXXXXXXXXXXX*=---5555"
};
