/* XPM */
static char *result[] = {
/* columns rows colors chars-per-pixel */
"60 60 24 1 ",
"  c black",
". c #282008",
"X c #382810",
"o c #202020",
"O c #282828",
"+ c gray22",
"@ c #403018",
"# c #483818",
"$ c #503818",
"% c #404000",
"& c #584020",
"* c #684820",
"= c #484848",
"- c #505050",
"; c #606060",
": c #63747D",
"> c gray44",
", c gray47",
"< c #B80000",
"1 c #B05000",
"2 c #805028",
"3 c #888888",
"4 c #989898",
"5 c gray66",
/* pixels */
"::::::::::::::::::::::::::::::::::::::::::::::::::::::::::::",
"::::::::::::::::::::::::::::::::::::::::::::::::::::::::::::",
"::::::::::::::::::::::::::::::::::::::::::::::::::::::::::::",
"::::::::::::::::::::::::::::::::::::::::::::::::::::::::::::",
"::::::::::::::::::::::::::::::::::::::::::::::::::::::::::::",
"::::::::::::::::::::::::::::::::::::::::::::::::::::::::::::",
"::::::::::::::::::::::::::::::::::::::::::::::::::::::::::::",
"::::::::::::::::::::::::::::::::::::::::::::::::::::::::::::",
"::::::::::::::::::::::::::::::::::::::::::::::::::::::::::::",
"::::::::::::::::::::::::::::::::::::::::::::::::::::::::::::",
"::::::::::::::::::::::::::::::::::::::::::::::::::::::::::::",
"::::::::::::::::::::::::::::::::::::::::::::::::::::::::::::",
"::::::::::::::::::::::::::::::::::::::::::::::::::::::::::::",
"::::::::::::::::::::::::::::::::::::::::::::::::::::::::::::",
"::::::::::::::::::::::::::::::::::::::::::::::::::::::::::::",
"::::::::::::::::::::::::::::::::::::::::::::::::::::::::::::",
"::::::::::::::::::::::::::::::::::::::::::::::::::::::::::::",
"::::::::::::::::::::::::::::::::::::::::::::::::::::::::::::",
"::::::::::::::::::::::::::::::::::::::::::::::::::::::::::::",
"::::::::::::::::::::::::::::::::::::::::::::::::::::::::::::",
"::::::::::::::::::::::::::::::::::::::::::::::::::::::::::::",
"::::::::::::::::::::::::::::::::::::::::::::::::::::::::::::",
"::::::::::::::::::::::::::::::::::::::::::::::::::::::::::::",
"::::::::::::::::::::::::::::::::::::::::::::::::::::::::::::",
"::::::::::::::::::::::::::::::::::::::::::::::::::::::::::::",
"::::::::::::::::::::::::::::::::::::::::::::::::::::::::::::",
"::::::::::::::::::::::::::::::::::::::::::::::::::::::::::::",
"::::::::::::::::::::::::::::::::::::::::::::::::::::::::::::",
"::::::::::::::::::::::::::::::::::::::::::::::::::::::::::::",
"::::::::::::::::::::::::::::::::::::::::::::::::::::::::::::",
":::::::::::::::::::::::::::::::::::::#::::::::::::::::::::::",
"::::::::::::::::::::::::::::::::::$##:::::::::::::::::::::::",
":::::::::::::::::::::::::::::::&$#::::::::::::::::::::::::::",
"::::::::::::::::::::::::::::::&&$:::::::::::::::::::::::::::",
"::::::::::::::::::::::::::::&*2$::::::::::::::::::::::::::::",
":::::::::::::::::::::=====&&212#::::::::::::::::::::::::::::",
"::::::::::::::::::::=-;>;->,,>;--:::::::::::::::::::::::::::",
"::::::::::::::::::::=;>>;->,,>;----:::::::::::::::::::::::::",
":::::::::::::::::::=-;--=-------;,>--:::::::::::::::::::::::",
":::::::::::::::::::+;-==-;>>,>----;,-=::::::::::::::::::::::",
":::::::::::::::::::O-=--;,33,;-->4,;;-::::::::::::::::::::::",
"::::::::::::::::::OO++-;,43,;3==;45,>;::::::::::::::::::::::",
"::::::::::::::::::OO++-;343>-,==-,54,;;:::::::::::::::::::::",
"::::::::::::::::::OO+O--4,--==++=;34,>;:::::::::::::::::::::",
"::::::::::::::::::O++o+=>=++=-=++=;,,>;;::::::::::::::::::::",
"::::::::::::::::::O+o&o++=-;;;=+O+=-;;;-::::::::::::::::::::",
"::::::::::::::::::O+o&oo+-;>;>-=OO+=----::::::::::::::::::::",
":::::::::::::::::::OOO++->33,3>-+2O++==-::::::::::::::::::::",
":::::::::::::::::::o+O==>343,4,>-+OOO=-:::::::::::::::::::::",
":::::::::::::::::::oOO=-,54,353,;+OO===:::::::::::::::::::::",
":::::::::::::::::::oOO+=,53,4543>+O=;=::::::::::::::::::::::",
"::::::::::::::::::::oOO++4;;;OO=,=O==+::::::::::::::::::::::",
"::::::::::::::::::::ooOO<+==o<O=;+O++:::::::::::::::::::::::",
"::::::::::::::::::::ooooO->>-=;=Oo+==:::::::::::::::::::::::",
":::::::::::::::::::::   >->;-53Ooo=-;$$$$:::::::::::::::::::",
":::::::::::::::::::::  =+-;-=+$3$o=;>$$$$&&&::::::::::::::::",
":::::::::::::::::::&&  ;;+  +5,XX+->,-XXXX#$&:::::::::::::::",
":::::::::::::::::&&$$#-XX%ooo..,.=;>>,.X##$&&:::::::::::::::",
":::::::::::::::::::&$$##@XXXXXXXX3-;-3.#$&&:::::::::::::::::",
":::::::::::::::::::::::$@@@@@$$::::3.X#$&:::::::::::::::::::"
};
