/* XPM */
static char *result[] = {
/* columns rows colors chars-per-pixel */
"33 33 24 1 ",
"  c black",
". c #282008",
"X c #382810",
"o c #202020",
"O c #282828",
"+ c gray22",
"@ c #403018",
"# c #483818",
"$ c #503818",
"% c #584020",
"& c #684820",
"* c #704828",
"= c #484848",
"- c #505050",
"; c #606060",
": c #63747D",
"> c gray44",
", c gray47",
"< c #B80000",
"1 c #984800",
"2 c #B05000",
"3 c #888888",
"4 c #989898",
"5 c gray66",
/* pixels */
":::::::::::::::::::::::::::::::::",
":::::::::::::::::::::::::::::::::",
":::::::::::::::::::::::::::::::::",
":::::::::::::::::::&&::::::::::::",
"::::::::::::::::::%*:::::::::::::",
":::::::::::::::::%*::::::::::::::",
"::::::::::::::::$&:::::::::::::::",
":::::::::::::::$1*:::::::::::::::",
":::::::::::::::12*:::::::::::::::",
":::::::::::::=;>>;=::::::::::::::",
"::::::::::--=->,,>-=--:::::::::::",
":::::::::--=-->,,>--=--::::::::::",
":::::::--;=;-;>>>>;-;=;--::::::::",
"::::::=>-==-;;>,,>;;-==>>=:::::::",
"::::::;-=--;;>3443>;;--=;;:::::::",
"::::::---;>,,>4554>,,>;---:::::::",
"::::::---,43>,3553,>34,>--:::::::",
"::::::=;;,4,-;>33>;-,4,;;=:::::::",
"::::::+==O===;-----=;=O==+:::::::",
"::::::+OO%OO+->,,>-+OO%OO+:::::::",
"::::::+Oo%OO+-,33,-+OO%oO+:::::::",
"::::::OOoo++=>3,,3>=++OooO:::::::",
"::::::=+ooO=-,5,,5,-=OoO+=:::::::",
"::::::==+O=++>4334>++=O+==:::::::",
"::::::+==O-=Oo>44>oO=-O==+:::::::",
":::::::==O+=o<o--o<o=+O==::::::::",
":::::::=-+OOO+->3-+OOO+-=$:::::::",
":::::::=-+oo;++--++;oo+-=$$$:::::",
"::::::=-;=+;oo+  +oo;+=;-=$%%%:::",
":::::%=;>;+X;,+  +,;X+->;=XX#$%::",
":::%%$3>>;3;..oooo..;,->>3##$%%::",
":::::%$$3##XXXXXXXXXXXX3#$$%%::::",
"::::::::::::##@@@@@##%:::::::::::"
};
