/* XPM */
static char *result[] = {
/* columns rows colors chars-per-pixel */
"33 33 24 1 ",
"  c black",
". c #282008",
"X c #382810",
"o c #202020",
"O c #282828",
"+ c gray22",
"@ c #403018",
"# c #483818",
"$ c #503818",
"% c #404000",
"& c #584020",
"* c #684820",
"= c #484848",
"- c #505050",
"; c #606060",
": c #63747D",
"> c gray44",
", c gray47",
"< c #B80000",
"1 c #B05000",
"2 c #805028",
"3 c #888888",
"4 c #989898",
"5 c gray66",
/* pixels */
":::::::::::::::::::::::::::::::::",
":::::::::::::::::::::::::::::::::",
":::::::::::::::::::::::::::::::::",
":::::::#:::::::::::::::::::::::::",
"::::::::##$::::::::::::::::::::::",
":::::::::::#$&:::::::::::::::::::",
"::::::::::::$&&::::::::::::::::::",
":::::::::::::$2*&::::::::::::::::",
":::::::::::::#212&&=====:::::::::",
"::::::::::::--;>,,>-;>;-=::::::::",
"::::::::::----;>,,>-;>>;=::::::::",
"::::::::-->,;-------=--;-=:::::::",
":::::::=-,;---->,>>;-==-;+:::::::",
":::::::-;;,4>--;,33,;--=-O:::::::",
"::::::;;>,54;==3;,34,;-++OO::::::",
"::::::;;,45,-==,->343;-++OO::::::",
"::::::;>,43;=++==--,4--O+OO::::::",
":::::;;>,,;=++=-=++=>=+o++O::::::",
":::::-;;;-=+O+=;;;-=++o&o+O::::::",
":::::----=+OO=->;>;-+oo&o+O::::::",
":::::-==++O2+->3,33>-++OOO:::::::",
"::::::-=OOO+->,4,343>==O+o:::::::",
"::::::===OO+;,353,45,-=OOo:::::::",
":::::::=;=O+>3454,35,=+OOo:::::::",
":::::::+==O=,=OO;;;4++OOo::::::::",
"::::::::++O+;=O<o==+<OOoo::::::::",
"::::::::==+oO=;=->>-Ooooo::::::::",
"::::::::;-=ooO35-;>->   $$$$:::::",
":::::::&>;=o$3$+=-;-+=  $$$&&&:::",
":::::&&-,>-+XX,5+  +;;  XXXX#$&::",
":::&&$$,>>;=.,..ooo%..-..X##$&&::",
":::::&$3-;-3XXXXXXXXXXX##$$&&::::",
":::::::::3@@X#$@@@@@@##&&::::::::"
};
