/* XPM */
static char *result[] = {
/* columns rows colors chars-per-pixel */
"33 33 23 1 ",
"  c black",
". c #282008",
"X c #382810",
"o c #202020",
"O c #282828",
"+ c gray22",
"@ c #403018",
"# c #483818",
"$ c #503818",
"% c #584020",
"& c #704828",
"* c #484848",
"= c #505050",
"- c #606060",
"; c #63747D",
": c gray44",
"> c gray47",
", c #B80000",
"< c #984800",
"1 c #B05000",
"2 c #888888",
"3 c #989898",
"4 c gray66",
/* pixels */
";;;;;;;;;;;;;;;;;;;;;;;;;;;;;;;;;",
";;;;;;;;;;;;;;;;;;;;;;;;;;;;;;;;;",
";;;;;;;;;;;;$;;;;;;;;;;;;;;;;;;;;",
";;;;;;;;;;;;;$;;;;;;;;;;;;;;;;;;;",
";;;;;;;;;;;;;;%;;;;;;;;;;;;;;;;;;",
";;;;;;;;;;;;;;;%;;;;;;;;;;;;;;;;;",
";;;;;;;;;;;;;;;&$;;;;;;;;;;;;;;;;",
";;;;;;;;;;;;;;;&<$;;;;;;;;;;;;;;;",
";;;;;;;;;;;;;;;&1<;;;;;;;;;;;;;;;",
";;;;;;;;;;;;;;*-::-*;;;;;;;;;;;;;",
";;;;;;;;;;;==*=:>>:=*==;;;;;;;;;;",
";;;;;;;;;;==*==:>>:==*==;;;;;;;;;",
";;;;;;;;==-*-=-::::-=-*-==;;;;;;;",
";;;;;;;*::**=--:>>:--=**=:*;;;;;;",
";;;;;;;--*==--:2332:--==*=-;;;;;;",
";;;;;;;===-:>>:3443:>>:-===;;;;;;",
";;;;;;;==:>32:>2442>:23>===;;;;;;",
";;;;;;;*-->3>=-:22:-=>3>--*;;;;;;",
";;;;;;;+**O*-*=====-***O**+;;;;;;",
";;;;;;;+OO%OO+=:>>:=+OO%OO+;;;;;;",
";;;;;;;+Oo%OO+=>22>=+OO%oO+;;;;;;",
";;;;;;;OooO++*:2>>2:*++ooOO;;;;;;",
";;;;;;;*+OoO*=>4>>4>=*Ooo+*;;;;;;",
";;;;;;;**+O*++:3223:++*O+**;;;;;;",
";;;;;;;+**O=*Oo:33:oO*=O**+;;;;;;",
";;;;;;;;**O+*o,o==o,o*+O**;;;;;;;",
";;;;;;;;*=+OOO+=2:=+OOO+=*$;;;;;;",
";;;;;;;;*=+oo-++==++-oo+=*$$$;;;;",
";;;;;;;*=-*+-oo+  +oo-+*-=*$$%%;;",
";;;;;%%*-:=+X->+  +>-X+-:-*X#$%;;",
";;;%%$$2::=>-..oooo..-2-::2#$%%;;",
";;;;;%$$#2#XXXXXXXXXXXX#2$$%%;;;;",
";;;;;;;;;;;;;##@@@@@##%%;;;;;;;;;"
};
