/* XPM */
static char *result[] = {
/* columns rows colors chars-per-pixel */
"60 60 27 1 ",
"  c black",
". c #282008",
"X c #382810",
"o c #202020",
"O c #282828",
"+ c gray22",
"@ c #483818",
"# c #503818",
"$ c #584020",
"% c #684820",
"& c #704828",
"* c gray25",
"= c #484848",
"- c #505050",
"; c #606060",
": c #63747D",
"> c gray44",
", c gray47",
"< c #805028",
"1 c #885830",
"2 c #A86840",
"3 c #7D929E",
"4 c #888888",
"5 c #989898",
"6 c gray66",
"7 c gray69",
"8 c #C0C0C0",
/* pixels */
"::::::::::::::::::::::::::::::::::::::::::::::::::::::::::::",
"::::::::::::::::::::::::::::::::::::::::::::::::::::::::::::",
"::::::::::::::::::::::::::::::::::::::::::::::::::::::::::::",
"::::::::::::::::::::::::::::::::::::::::::::::::::::::::::::",
"::::::::::::::::::::::::::::::::::::::::::::::::::::::::::::",
"::::::::::::::::::::::::::::::::::::::::::::::::::::::::::::",
"::::::::::::::::::::::::::::::::::::::::::::::::::::::::::::",
"::::::::::::::::::::::::::::::::::::::::::::::::::::::::::::",
"::::::::::::::::::::::::::::::::::::::::::::::::::::::::::::",
"::::::::::::::::::::::::::::::::::::::::::::::::::::::::::::",
"::::::::::::::::::::::::::::::::::::::::::::::::::::::::::::",
"::::::::::::::::::::::::::::::::::::::::::::::::::::::::::::",
"::::::::::::::::::::::::::::::::::::::::::::::::::::::::::::",
"::::::::::::::::::::::::::::::::::::::::::::::::::::::::::::",
"::::::::::::::::::::::::::::::::::::::::::::::::::::::::::::",
"::::::::::::::::::::::::::::::::::::::::::::::::::::::::::::",
"::::::::::::::::::::::::::::::::::::::::::::::::::::::::::::",
"::::::::::::::::::::::::::::::::::::::::::::::::::::::::::::",
"::::::::::::::::::::::::::::::::::::::::::::::::::::::::::::",
"::::::::::::::::::::::::::::::::::::::::::::::::::::::::::::",
"::::::::::::::::::::::::::::::::::::::::::::::::::::::::::::",
"::::::::::::::::::::::::::::::::::::::::::::::::::::::::::::",
"::::::::::::::::::::::::::::::::::::::::::::::::::::::::::::",
"::::::::::::::::::::::::::::::::::::::::::::::::::::::::::::",
"::::::::::::::::::::::::::::::::::::::::::::::::::::::::::::",
"::::::::::::::::::::::::::::::::::::::::::::::::::::::::::::",
"::::::::=-;=OO-:::::::::::::::::::::::::::::::::::::::::::::",
":::::O+=;-;44;  ::::::::::::::::::::::::::::::::::::::::::::",
"::::O&+=;;4,,-+O::::::::::::::::::::::::::::::::::::::::::::",
"::::O2+=;4,>;-=O>:::::::::::::::::::::::::::::::::::::::::::",
":::::OO=;,>;-Ooo;>::::::::::::::::::::::::::::::::::::::::::",
"::::::O=-;>-O5o5;4,;::::::::::::::::::::::::::::::::::::::::",
"::::::O+=;-O oo+-;574;::::::::::::::::::::::::::::::::::::::",
":::::::O=-=O=-5+->,474>:::::::::::::::::::::::::::::::::::::",
":::::::O+==++++=>,,,,55>::::::::::::::::::::::::::::::::::::",
":::::::O+===+O-;>>>>,,45,>::::::::::::::::::::::::::::::::::",
"::::::::O+=--;;>>>>>,,,454,>>,,:::::::::::::::::::::::::::::",
"::::::::O++-;>,>>>>>>>,,454,>>>>,>::::::::::::::::::::::::::",
":::::::::O+-;,45>>>>>>>>>>>,44,,>>,,::::::::::::::::::::::::",
":::::::::Oo>,4565,>;;>>>>;;;>,54,;;;;:::::::::::::::::::::::",
":::::::,567545566,>;;;;;;;;;>>,454-=-:::::::::::::::::::::::",
"::::::,5654445665,;=-------;>>>,454+=1::::::::::::::::::::::",
"::::>>>,>;--------=+==-----;>>>>,45,+-1&::::::::::::::::::::",
"::>8-->;-=-+Oo   oO+=====---;>>>>,45;<<1&:::::::::::::::::::",
":>5+o+=-=-:::+Oo  oO+++++==--;>>>>,4>%&<1&::::::::::::::::::",
"8-+ooO+::::::::+Oo  oOO+++==--;>>>,4>$$%&<1&::::::::::::::::",
">-oO:::::::::::::+oo   ooO++==-;;>>,4;:*$%%&&<<$$:::::::::::",
":6+:::::::::::::::::*oo   ooO+=--;>>,5;::$$$$$$$::::::::::::",
"::::::::::::::::::::::::*o  oO+==-;>>45-::::::::::::::::::::",
":::::::::::::::::::::::::::*O oO++=->,4-::::::::::::::::::::",
":::::::::::::::::::::::::::::o  oO:=-,4-::::::::::::::::::::",
"::::::::::::::::::::::::::::*o oO:::=>,-::::::::::::::::::::",
":::::::::::::::::::::::::::-+ooO::::=;,-::::::::::::::::::::",
":::::::::::::::::::::::::--+OOO:::::=->-::::::::::::::::::::",
"::::::::::::::::::::::::;*OOO:::::::+=;;-:::::::::::::::::::",
"::::::::$$$$$$$$#######5OOO#########O=-;;#######$$$$$$$$::::",
"::::$$$$####@@@@XXXXXXXXXXXXXXXXXXXXXO=-;XXXXXXXXX@@##$$$$::",
"$$$$####@@XXXXXXXX....................;-5...XX@@@@##$$$$$$::",
"::::$$####@@@@@@XXXXXXXXXXXXXXXXXXXXXXXX@@@@####$$$$$$::::::",
"333333333333333333333333333333333333333333333333333333333333"
};
