/* XPM */
static char *result[] = {
/* columns rows colors chars-per-pixel */
"60 60 25 1 ",
"  c black",
". c #282008",
"X c #382810",
"o c #202020",
"O c #282828",
"+ c gray22",
"@ c #483818",
"# c #503818",
"$ c #584020",
"% c #684820",
"& c #704828",
"* c #484848",
"= c #505050",
"- c #606060",
"; c #63747D",
": c gray44",
"> c gray47",
", c #805028",
"< c #885830",
"1 c #905830",
"2 c #986038",
"3 c #7D929E",
"4 c #888888",
"5 c #989898",
"6 c gray66",
/* pixels */
";;;;;;;;;;;;;;;;;;;;;;;;;;;;;;;;;;;;;;;;;;;;;;;;;;;;;;;;;;;;",
";;;;;;;;;;;;;;;;;;;;;;;;;;;;;;;;;;;;;;;;;;;;;;;;;;;;;;;;;;;;",
";;;;;;;;;;;;;;;;;;;;;;;;;;;;;;;;;;;;;;;;;;;;;;;;;;;;;;;;;;;;",
";;;;;;;;;;;;;;;;;;;;;;;;;;;;;;;;;;;;;;;;;;;;;;;;;;;;;;;;;;;;",
";;;;;;;;;;;;;;;;;;;;;;;;;;;;;;;;;;;;;;;;;;;;;;;;;;;;;;;;;;;;",
";;;;;;;;;;;;;;;;;;;;;;;;;;;;;;;;;;;;;;;;;;;;;;;;;;;;;;;;;;;;",
";;;;;;;;;;;;;;;;;;;;;;;;;;;;;;;;;;;;;;;;;;;;;;;;;;;;;;;;;;;;",
";;;;;;;;;;;;;;;;;;;;;;;;;;;;;;;;;;;;;;;;;;;;;;;;;;;;;;;;;;;;",
";;;;;;;;;;;;;;;;;;;;;;;;;;;;;;;;;;;;;;;;;;;;;;;;;;;;;;;;;;;;",
";;;;;;;;;;;;;;;;;;;;;;;;;;;;;;;;;;;;;;;;;;;;;;;;;;;;;;;;;;;;",
";;;;;;;;;;;;;;;;;;;;;;;;;;;;;;;;;;;;;;;;;;;;;;;;;;;;;;;;;;;;",
";;;;;;;;;;;;;;;;;;;;;;;;;;;;;;;;;;;;;;;;;;;;;;;;;;;;;;;;;;;;",
";;;;;;;;;;;;;;;;;;;;;;;;;;;;;;;;;;;;;;;;;;;;;;;;;;;;;;;;;;;;",
";;;;;;;;;;;;;;;;;;;;;;;;;;;;;;;;;;;;;;;;;;;;;;;;;;;;;;;;;;;;",
";;;;;;;;;;;;;;;;;;;;;;;;;;;;;;;;;;;;;;;;;;;;;;;;;;;;;;;;;;;;",
";;;;;;;;;;;;;;;;;;;;;;;;;;;;;;;;;;;;;;;;;;;;;;;;;;;;;;;;;;;;",
";;;;;;;;;;;;;;;;;;;;;;;;;;;;;;;;;;;;;;;;;;;;;;;;;;;;;;;;;;;;",
";;;;;;;;;;;;;;;;;;;;;;;;;;;;;;;;;;;;;;;;;;;;;;;;;;;;;;;;;;;;",
";;;;;;;;;;;;;;;;;;;;;;;;;;;;;;;;;;;;;;;;;;;;;;;;;;;;;;;;;;;;",
";;;;;;;;;;;;;;;;;;;;;;;;;;;;;;;;;;;;;;;;;;;;;;;;;;;;;;;;;;;;",
";;;;;;;;;;;;;;;;;;;;;;;;;;;;;;;;;;;;;;;;;;;;;;;;;;;;;;;;;;;;",
";;;;;;;;;;;;;;;;;;;;;;;;;;;;;;;;;;;;;;;;;;;;;;;;;;;;;;;;;;;;",
";;;;;;;;;;;;;;;;;;;;;;;;;;;;;;;;;;;;;;;;;;;;;;;;;;;;;;;;;;;;",
";;;;;;;;;;;;;;;;;;;;;;;;;;;;;;;;;;;;;;;;;;;;;;;;;;;;;;;;;;;;",
";;;;;;;;;;;;;;;;;;;;;;;;;;;;;;;;;;;;;;;;;;;;;;;;;;;;;;;;;;;;",
";;;;;;;;;;;;;;;;;;;;;;;;;;;;;;;;;;;;;;;;;;;;;;;;;;;;;;;;;;;;",
";;;;;;;;;;;;;;;;;;;;;;;;;;;;;;;;;;;;;;;;;;;;;;;;;;;;;;;;;;;;",
";;;;;;;;;;;;;;O ;;;;;;;;;;;;;;;;;;;;;;;;;;;;;;;;;;;;;;;;;;;;",
";;;;;;;;;;;;;O   ;;;;;;;;;;;;;;;;;;;;;;;;;;;;;;;;;;;;;;;;;;;",
";;;;;;;;;;;OOO   ;;;;;;;;;;;;;;;;;;;;;;;;;;;;;;;;;;;;;;;;;;;",
";;;;;;;;;;O+OOOO ;;;;;;;;;;;;;;;;;;;;;;;;;;;;;;;;;;;;;;;;;;;",
";;;;;;;;OO*=+OO+O*;;;;;;;;;;;;;;;;;;;;;;;;;;;;;;;;;;;;;;;;;;",
";;;;;;;O&*-=+++--:;;;;;;;;;;;;;;;;;;;;;;;;;;;;;;;;;;;;;;;;;;",
";;;;;;;;O-:-==->=-:;;;;;;;;;;;;;;;;;;;;;;;;;;;;;;;;;;;;;;;;;",
";;;;;;;;--::>544>--:;;;;;;;;;;;;;;;;;;;;;;;;;;;;;;;;;;;;;;;;",
";;;;;;;;=-:>5>>44>---;;;;;;;;;;;;;;;;;;;;;;;;;;;;;;;;;;;;;;;",
";;;;;;;;*=:4>>=->44-:::;;;;;;;;;;;;;;;;;;;;;;;;;;;;;;;;;;;;;",
";;;;;;;;*=-6>=+=->44:>------;;;;;;;;;;;;;;;;;;;;;;;;;;;;;;;;",
";;;;;;;;;*-***++=>>44>>>>>----;;;;;;;;;;;;;;;;;;;;;;;;;;;;;;",
";;;;;;;;;*==*+++*->>>::=>>>>----;;;;;;;;;;;;;;;;;;;;;;;;;;;;",
";;;;;;;;;;*-=++O+*=-:::=:>4444>:---;;;;;;;;;;;;;;;;;;;;;;;;;",
";;;;;;;;;;*=-*++Oo*==--=->>444554>::::::-;;;;;;;;;;;;;;;;;;;",
";;;;;;;;;;;*==+++Oo+====-::>>4445544>>>:=12;;;;;;;;;;;;;;;;;",
";;;;;;;;;;;+*=*+++OOo+*==--::>>444444554:-%&,1;;;;;;;;;;;;;;",
";;;;;;;;;;>++*=++++++++=====-:>>>44444455>-$$%,<;;;;;;;;;;;;",
";;;;;;;>>>-=++*OO++*********==-:>>>>>>>445>-$$$%&&$;;;;;;;;;",
";;;;;>>--=**+++OOOO+++*********=--:>>>>>>44>-;;#$#$$$;;;;;;;",
";;;;>>-=**+++++++OOOOO++++*******==----:>>4>-;;;;;;$#$$$;;;;",
";;;>>-=**;;;;;;;;+++OOOOOO++++++++++*===:>4>-;;;;;;;;;;;;;;;",
";;;5>-*;;;;;;;;;;;;;++++OOOOOOOOOOOOO+;;=>44-;;;;;;;;;;;;;;;",
";;;;=-;;;;;;;;;;;;;;;;;;+++++++OooooooO;=:>4:-;;;;;;;;;;;;;;",
";;;;;;;;;;;;;;;;;;;;;;;;;;;;;***+OooooO+;=:>>>-;;;;;;;;;;;;;",
";;;;;;;;;;;;;;;;;;;;;;;;;;;;;;;***+OooO+;;*-:>:-5;;;;;;;;;;;",
";;;;;;;;;;;;;;;;;;;;;;;;;;;;;;;;***+OO+;;;;+*==--;;;;;;;;;;;",
";;;;;;;;;;;;;;;;;;;;;;;;;;;;;====**++;;;;;;;++*=5;;;;;;;;;;;",
";;;;;;;;;;;;;;;############===*+++++#########++5#$$$$$$$$;;;",
";;;;;$$$$#############XXXXX=*++OOOXXXXXXXXXXXXXXXXX@@##$$$$;",
";$$$$####@@XXXXXXXX........5+OO..............XX@@@@##$$$$$$;",
";;;;;$$####@@@@@@XXXXXXXXXXXXXXXXXXXXXXXX@@@@####$$$$$$;;;;;",
"333333333333333333333333333333333333333333333333333333333333"
};
